<svg xmlns="http://www.w3.org/2000/svg" xmlns:xlink="http://www.w3.org/1999/xlink" id="svg" version="1.1" width="400" height="146.0946094609461" viewBox="0 0 400 146.0946094609461">
  <g id="svgg">
    <path id="path0" d="M133.489 15.133 C 133.007 15.189,132.975 15.309,132.343 19.381 C 132.161 20.553,131.970 21.580,131.919 21.662 C 131.869 21.745,131.758 22.323,131.673 22.948 C 131.589 23.572,131.392 24.758,131.236 25.583 C 131.080 26.408,130.919 27.590,130.879 28.208 L 130.806 29.333 133.384 29.333 C 136.971 29.333,137.563 28.983,138.512 26.299 C 139.703 22.933,139.026 21.112,136.468 20.795 C 134.517 20.552,134.382 20.354,134.922 18.533 C 135.247 17.438,135.464 17.333,137.401 17.333 L 138.991 17.333 139.246 16.842 C 139.553 16.247,139.577 15.403,139.292 15.218 C 139.097 15.092,134.428 15.023,133.489 15.133 M145.567 15.232 C 145.227 15.476,144.581 16.838,143.501 19.583 C 143.213 20.317,142.877 21.142,142.755 21.417 C 142.633 21.692,142.415 22.269,142.271 22.700 C 142.128 23.130,141.863 23.805,141.683 24.200 C 140.821 26.092,139.961 28.275,139.879 28.784 L 139.787 29.349 141.008 29.299 L 142.229 29.250 142.743 28.250 L 143.257 27.250 144.291 27.200 C 145.658 27.135,146.000 27.327,146.000 28.159 C 146.000 29.270,146.072 29.333,147.340 29.333 C 148.277 29.333,148.494 29.282,148.569 29.042 C 148.715 28.575,148.632 26.789,148.442 26.333 C 148.347 26.104,148.210 24.192,148.138 22.083 C 147.921 15.722,147.865 15.167,147.442 15.165 C 147.245 15.164,146.821 15.122,146.500 15.071 C 146.118 15.011,145.796 15.067,145.567 15.232 M152.750 15.139 C 152.198 15.263,151.875 16.079,151.846 17.417 C 151.838 17.783,151.752 18.371,151.654 18.722 C 151.557 19.073,151.414 19.861,151.337 20.472 C 151.090 22.437,150.440 25.865,150.191 26.520 C 150.099 26.761,149.972 27.492,149.907 28.145 L 149.790 29.333 150.951 29.333 L 152.112 29.333 152.387 28.042 C 152.538 27.331,152.770 26.232,152.903 25.600 C 153.185 24.259,153.281 24.173,154.500 24.169 C 156.052 24.165,156.974 23.710,157.755 22.564 C 159.632 19.812,159.685 16.185,157.859 15.394 C 157.201 15.109,153.664 14.932,152.750 15.139 M167.392 15.128 C 167.133 15.292,166.715 16.804,166.505 18.333 C 166.294 19.874,165.923 22.012,165.581 23.667 C 165.439 24.354,165.255 25.367,165.173 25.918 C 165.090 26.468,164.943 27.129,164.845 27.387 C 164.747 27.644,164.667 28.188,164.667 28.594 L 164.667 29.333 166.075 29.333 C 167.759 29.333,168.047 29.067,169.138 26.500 C 170.051 24.353,170.437 23.522,170.806 22.917 C 171.178 22.305,171.728 21.667,171.883 21.667 C 171.996 21.667,171.606 23.682,170.838 27.075 C 170.312 29.398,170.288 29.333,171.646 29.333 C 173.070 29.333,173.169 29.228,173.340 27.530 C 173.412 26.813,173.554 25.745,173.656 25.155 C 173.922 23.606,174.274 21.495,174.584 19.583 C 174.733 18.667,174.925 17.602,175.010 17.218 C 175.445 15.272,175.184 14.919,173.458 15.121 C 172.500 15.233,172.675 14.975,170.174 19.962 C 169.068 22.165,168.241 23.629,168.138 23.565 C 167.956 23.453,167.986 23.210,168.421 21.250 C 169.394 16.865,169.540 15.261,168.979 15.110 C 168.447 14.968,167.627 14.977,167.392 15.128 M178.740 15.106 C 178.259 15.212,177.833 16.010,177.833 16.807 C 177.833 17.176,177.752 17.689,177.653 17.947 C 177.554 18.206,177.411 18.904,177.334 19.500 C 177.257 20.096,176.919 22.444,176.583 24.718 C 175.869 29.548,175.842 29.333,177.154 29.333 L 178.151 29.333 178.331 28.708 C 178.430 28.365,178.581 27.493,178.667 26.772 C 178.753 26.051,178.872 25.309,178.931 25.122 C 178.990 24.935,179.086 24.251,179.144 23.602 C 179.224 22.706,179.315 22.408,179.517 22.369 C 179.791 22.317,179.798 22.340,180.359 25.375 C 180.666 27.031,180.744 27.167,181.392 27.167 C 182.107 27.167,182.194 27.058,183.436 24.600 C 185.037 21.433,185.415 21.824,184.627 25.833 C 184.438 26.796,184.250 27.977,184.209 28.458 L 184.136 29.333 185.223 29.333 C 186.447 29.333,186.380 29.408,186.651 27.750 C 186.740 27.200,186.935 26.113,187.084 25.333 C 187.232 24.554,187.419 23.392,187.500 22.750 C 187.756 20.705,188.372 17.521,188.654 16.781 C 189.117 15.567,188.801 15.000,187.662 15.000 C 186.669 15.000,186.449 15.237,185.261 17.583 C 182.721 22.599,182.206 23.334,181.839 22.470 C 181.595 21.894,181.167 19.404,181.167 18.556 C 181.167 17.796,180.756 15.741,180.532 15.383 C 180.393 15.161,179.277 14.989,178.740 15.106 M192.375 15.167 C 192.121 15.272,192.000 15.464,192.000 15.759 C 192.000 15.999,191.892 16.658,191.760 17.223 C 191.628 17.788,191.400 18.850,191.253 19.583 C 191.106 20.317,190.876 21.379,190.743 21.944 C 190.609 22.509,190.500 23.179,190.500 23.432 C 190.500 23.686,190.432 24.123,190.349 24.405 C 190.065 25.363,189.667 27.792,189.667 28.564 L 189.667 29.333 190.744 29.333 C 191.965 29.333,192.083 29.228,192.258 27.979 C 192.315 27.578,192.462 26.762,192.585 26.167 C 192.708 25.571,192.886 24.671,192.980 24.167 C 193.073 23.662,193.266 22.650,193.408 21.917 C 193.550 21.183,193.743 20.023,193.838 19.339 C 194.068 17.668,194.302 17.333,195.243 17.333 C 196.906 17.333,197.102 17.738,196.599 20.134 C 196.471 20.748,196.241 22.037,196.090 23.000 C 195.759 25.100,195.593 26.020,195.256 27.645 C 194.883 29.439,194.821 29.333,196.244 29.333 C 197.663 29.333,197.719 29.285,197.902 27.917 C 197.964 27.458,198.082 26.708,198.164 26.250 C 198.247 25.792,198.440 24.629,198.594 23.667 C 198.748 22.704,199.018 21.204,199.194 20.333 C 199.370 19.462,199.588 18.262,199.678 17.667 C 199.769 17.071,199.931 16.340,200.038 16.042 C 200.369 15.124,200.231 15.088,196.284 15.048 C 194.340 15.028,192.581 15.082,192.375 15.167 M206.417 15.116 C 203.443 15.455,202.431 16.714,201.558 21.167 C 200.803 25.016,200.851 27.675,201.695 28.748 C 202.690 30.013,205.988 30.052,207.109 28.813 C 207.649 28.216,208.444 26.652,208.540 25.997 C 208.587 25.678,208.703 25.192,208.799 24.917 C 209.102 24.046,209.350 22.790,209.441 21.669 C 209.489 21.072,209.635 20.301,209.764 19.955 C 210.778 17.253,209.088 14.811,206.417 15.116 M213.815 15.110 C 213.476 15.201,213.196 15.809,213.075 16.714 C 212.663 19.815,212.337 21.679,211.438 26.064 C 210.745 29.444,210.721 29.333,212.145 29.333 L 213.254 29.333 213.480 28.458 C 213.603 27.977,213.768 27.171,213.845 26.667 C 214.209 24.279,214.286 24.167,215.546 24.167 C 217.503 24.167,218.371 23.660,219.213 22.028 C 220.818 18.915,220.663 16.313,218.819 15.377 C 218.115 15.020,214.812 14.844,213.815 15.110 M222.471 15.173 C 222.318 15.262,222.144 15.579,222.084 15.876 C 222.024 16.173,221.941 16.540,221.899 16.691 C 221.771 17.147,222.291 17.500,223.091 17.500 C 224.289 17.500,224.432 17.884,224.006 19.939 C 223.417 22.776,223.147 23.907,222.988 24.206 C 222.903 24.365,222.833 24.708,222.833 24.967 C 222.833 25.227,222.729 25.809,222.601 26.261 C 221.901 28.730,222.092 29.367,223.508 29.300 L 224.570 29.250 224.796 28.500 C 225.030 27.722,225.236 26.665,225.501 24.868 C 225.586 24.292,225.712 23.729,225.781 23.618 C 225.851 23.507,225.995 22.704,226.102 21.833 C 226.576 17.968,226.757 17.546,227.975 17.467 C 228.826 17.412,229.032 17.169,229.255 15.961 C 229.359 15.393,229.331 15.324,228.924 15.169 C 228.356 14.953,222.842 14.956,222.471 15.173 M232.833 15.112 C 231.594 15.305,231.621 15.243,231.163 18.865 C 231.086 19.478,230.942 20.130,230.845 20.312 C 230.747 20.495,230.667 20.919,230.667 21.253 C 230.667 21.588,230.556 22.324,230.422 22.889 C 230.148 24.037,229.615 27.766,229.596 28.667 L 229.583 29.250 230.611 29.299 C 231.772 29.355,231.754 29.375,231.997 27.774 C 232.551 24.107,232.912 23.333,234.065 23.333 C 235.300 23.333,235.305 23.366,234.686 27.917 C 234.498 29.295,234.527 29.333,235.747 29.333 C 237.073 29.333,237.094 29.305,237.501 26.982 C 237.684 25.938,237.943 24.596,238.077 24.000 C 238.374 22.675,238.749 20.308,239.013 18.083 C 239.122 17.167,239.247 16.174,239.290 15.878 C 239.384 15.240,238.802 14.906,237.893 15.077 C 237.181 15.210,236.988 15.491,236.830 16.622 C 236.255 20.734,235.989 21.201,234.393 20.901 C 233.617 20.756,233.594 20.647,233.925 18.638 C 234.406 15.712,234.423 15.167,234.029 15.167 C 233.845 15.167,233.594 15.140,233.472 15.107 C 233.350 15.074,233.063 15.076,232.833 15.112 M244.833 15.262 C 243.075 15.731,242.152 16.694,241.572 18.667 C 241.424 19.171,241.197 19.935,241.068 20.365 C 240.939 20.794,240.833 21.325,240.833 21.543 C 240.833 21.761,240.714 22.340,240.569 22.829 C 240.396 23.413,240.301 24.418,240.292 25.759 L 240.278 27.799 240.822 28.486 C 242.854 31.051,246.982 29.775,247.673 26.367 C 247.742 26.028,247.955 25.150,248.146 24.417 C 248.338 23.683,248.540 22.596,248.595 22.000 C 248.650 21.404,248.811 20.551,248.951 20.104 C 249.998 16.779,247.993 14.421,244.833 15.262 M253.125 15.119 C 252.765 15.174,252.667 15.279,252.667 15.609 C 252.667 15.840,252.559 16.491,252.427 17.056 C 252.295 17.621,252.022 18.946,251.821 20.000 C 251.620 21.054,251.351 22.442,251.223 23.083 C 250.899 24.704,250.560 26.874,250.423 28.208 L 250.307 29.333 251.385 29.333 L 252.464 29.333 252.732 28.663 C 252.879 28.295,253.000 27.706,253.000 27.355 C 253.000 27.004,253.075 26.499,253.166 26.233 C 253.257 25.967,253.410 25.262,253.506 24.667 C 253.765 23.056,253.933 22.169,254.137 21.333 C 254.237 20.921,254.448 19.963,254.604 19.206 C 254.948 17.545,255.058 17.440,256.567 17.333 L 257.750 17.250 257.897 16.273 C 258.012 15.503,257.995 15.266,257.813 15.151 C 257.587 15.008,254.021 14.984,253.125 15.119 M262.667 15.266 C 260.390 15.874,259.483 17.248,258.748 21.201 C 257.548 27.656,258.191 29.668,261.453 29.666 C 264.227 29.663,265.434 28.297,266.160 24.333 C 266.398 23.038,266.659 21.701,266.870 20.708 C 267.774 16.445,266.147 14.338,262.667 15.266 M275.562 15.115 C 275.262 15.174,275.191 15.341,275.098 16.217 C 275.038 16.785,274.885 17.813,274.758 18.500 C 274.631 19.188,274.402 20.462,274.251 21.333 C 274.099 22.204,273.797 23.854,273.580 25.000 C 273.362 26.146,273.132 27.590,273.069 28.208 L 272.954 29.333 274.130 29.333 C 275.279 29.333,275.309 29.323,275.403 28.875 C 275.547 28.185,276.831 20.574,277.013 19.333 C 277.263 17.625,278.730 16.654,279.764 17.511 C 280.076 17.771,280.067 19.445,279.750 20.000 C 279.619 20.229,279.509 20.767,279.506 21.196 C 279.503 21.624,279.425 22.337,279.334 22.779 C 279.115 23.842,278.668 26.982,278.548 28.300 L 278.453 29.350 279.596 29.300 L 280.739 29.250 281.021 28.167 C 281.177 27.571,281.424 26.371,281.571 25.500 C 282.115 22.270,282.379 20.897,282.603 20.135 C 282.730 19.706,282.834 19.106,282.835 18.802 C 282.836 18.498,282.949 17.882,283.085 17.432 C 283.521 15.994,283.431 15.228,282.813 15.104 C 282.250 14.992,276.145 15.001,275.562 15.115 M287.148 15.117 C 286.575 15.206,286.403 15.622,286.083 17.701 C 285.517 21.374,285.295 22.612,285.068 23.365 C 284.939 23.794,284.833 24.388,284.833 24.683 C 284.833 24.979,284.727 25.602,284.598 26.069 C 283.683 29.364,283.675 29.333,285.498 29.333 L 286.995 29.333 287.409 28.708 C 287.637 28.364,288.019 27.600,288.259 27.011 C 289.516 23.915,291.045 21.354,291.250 21.999 C 291.308 22.181,291.316 22.393,291.269 22.469 C 291.050 22.823,290.036 27.996,290.012 28.875 C 290.000 29.328,290.012 29.333,291.063 29.333 C 292.316 29.333,292.424 29.238,292.574 28.000 C 292.636 27.496,292.757 26.708,292.844 26.250 C 293.265 24.044,293.982 20.020,294.049 19.500 C 294.089 19.179,294.252 18.100,294.409 17.102 C 294.741 14.996,294.747 15.006,293.324 15.003 C 292.082 14.999,292.007 15.076,290.741 17.667 C 288.370 22.516,288.078 23.091,287.876 23.304 C 287.761 23.425,287.667 23.646,287.667 23.795 C 287.667 24.003,287.621 24.021,287.471 23.871 C 287.322 23.722,287.322 23.575,287.471 23.247 C 287.579 23.011,287.668 22.615,287.670 22.367 C 287.672 22.119,287.863 20.942,288.095 19.750 C 288.873 15.746,288.792 14.785,287.697 15.025 C 287.635 15.039,287.387 15.080,287.148 15.117 M298.542 15.118 C 298.296 15.165,298.137 15.343,298.080 15.637 C 298.032 15.882,297.919 16.421,297.829 16.833 C 297.739 17.246,297.596 18.033,297.510 18.583 C 297.424 19.133,297.233 20.108,297.085 20.750 C 296.937 21.392,296.756 22.254,296.683 22.667 C 296.412 24.198,296.128 25.609,295.910 26.500 C 295.706 27.336,295.609 28.286,295.651 29.042 C 295.670 29.394,300.558 29.479,301.670 29.146 C 304.220 28.382,305.256 24.106,303.288 22.471 L 302.751 22.025 303.437 21.387 C 305.414 19.550,305.512 16.185,303.612 15.323 C 302.942 15.019,299.731 14.889,298.542 15.118 M311.025 15.190 C 310.635 15.334,310.455 15.595,310.007 16.667 C 309.796 17.171,309.338 18.193,308.989 18.938 C 308.641 19.683,308.006 21.291,307.580 22.510 C 307.153 23.729,306.580 25.220,306.306 25.822 C 304.644 29.467,304.647 29.333,306.227 29.333 L 307.454 29.333 307.977 28.351 C 308.559 27.260,308.700 27.167,309.775 27.167 C 310.864 27.167,311.167 27.383,311.167 28.159 C 311.167 29.272,311.238 29.333,312.518 29.333 L 313.667 29.333 313.664 27.792 C 313.663 26.893,313.563 25.966,313.424 25.567 C 313.242 25.044,313.183 23.809,313.172 20.278 C 313.164 17.744,313.117 15.565,313.067 15.434 C 312.968 15.177,311.525 15.005,311.025 15.190 M30.333 16.535 C 29.010 16.680,27.076 17.133,26.463 17.442 C 25.087 18.135,22.258 20.451,22.072 21.035 C 22.010 21.231,21.707 21.785,21.398 22.267 C 20.594 23.525,19.976 25.494,19.876 27.115 L 19.793 28.480 20.896 30.727 C 22.303 33.591,22.304 33.662,20.997 36.423 C 20.446 37.588,19.911 38.871,19.810 39.274 C 19.564 40.250,19.725 51.636,19.998 52.583 C 20.103 52.950,20.230 53.438,20.279 53.667 C 20.614 55.233,23.320 59.333,24.019 59.333 C 24.082 59.333,24.497 59.577,24.942 59.875 C 27.749 61.756,28.751 61.985,34.250 61.998 C 38.915 62.010,40.042 62.445,41.127 64.655 L 41.583 65.583 41.583 82.917 C 41.583 100.143,41.581 100.255,41.235 101.002 C 39.602 104.531,34.771 104.589,32.931 101.100 L 32.500 100.284 32.494 86.017 C 32.488 68.587,32.952 70.262,28.711 72.374 L 26.338 73.555 25.627 73.321 C 25.237 73.193,24.150 72.697,23.213 72.219 C 19.546 70.349,19.632 70.221,19.698 77.472 L 19.750 83.090 20.813 85.253 C 22.279 88.237,22.279 88.235,20.889 91.083 L 19.750 93.417 19.697 98.250 C 19.641 103.369,19.852 107.095,20.267 108.333 C 21.408 111.735,24.394 114.945,27.168 115.753 C 27.671 115.899,28.308 116.106,28.583 116.212 C 29.275 116.479,43.618 116.590,44.667 116.336 C 48.323 115.451,49.641 114.643,51.765 111.981 C 52.682 110.832,54.000 108.451,54.000 107.944 C 54.000 107.814,54.112 107.438,54.250 107.109 C 54.467 106.590,54.500 104.210,54.500 89.195 L 54.500 71.880 54.026 70.982 C 53.765 70.488,53.128 69.283,52.611 68.305 L 51.671 66.527 52.711 64.499 C 53.282 63.384,53.914 62.159,54.115 61.778 C 54.549 60.952,54.620 59.315,54.250 58.667 C 54.119 58.438,54.007 58.063,54.001 57.833 C 53.994 57.604,53.879 57.271,53.745 57.093 C 53.610 56.915,53.500 56.673,53.500 56.556 C 53.500 56.060,51.829 53.665,50.750 52.614 C 47.707 49.651,46.755 49.340,40.250 49.191 L 35.583 49.083 34.809 48.628 C 32.599 47.329,32.500 46.926,32.500 39.234 L 32.500 32.843 32.907 31.963 C 33.969 29.666,35.141 29.170,39.516 29.168 C 42.088 29.166,42.690 29.315,44.917 30.503 C 49.824 33.120,52.801 34.500,53.539 34.500 C 54.506 34.500,54.500 34.559,54.500 25.405 C 54.500 15.018,54.772 15.557,50.595 17.667 C 47.904 19.026,47.877 19.030,46.293 18.197 C 45.628 17.847,44.933 17.482,44.750 17.385 C 42.799 16.359,43.259 16.417,37.083 16.417 C 33.967 16.417,30.929 16.470,30.333 16.535 M63.750 16.762 C 63.351 17.064,63.208 83.023,63.605 83.516 C 64.040 84.056,66.000 88.035,65.999 88.377 C 65.998 88.741,65.620 89.537,64.158 92.250 L 63.440 93.583 63.440 99.333 L 63.440 105.083 64.634 107.250 C 66.283 110.244,66.277 109.986,64.765 112.915 C 63.389 115.581,63.316 115.852,63.870 116.241 C 64.399 116.611,75.256 116.632,75.760 116.263 C 76.078 116.031,76.085 115.474,76.167 85.305 C 76.259 51.165,76.151 54.159,77.347 52.650 C 79.092 50.446,82.730 50.602,84.392 52.952 C 85.387 54.359,85.328 52.315,85.333 85.250 C 85.339 117.811,85.299 116.363,86.179 116.466 C 86.525 116.507,88.855 115.554,90.221 114.813 C 90.388 114.723,90.816 114.497,91.172 114.311 L 91.820 113.973 92.785 114.471 C 94.760 115.490,97.016 116.500,97.316 116.500 C 98.118 116.500,98.083 117.789,98.083 88.349 L 98.083 60.750 96.971 58.570 C 95.373 55.437,95.422 54.884,97.619 51.295 C 99.047 48.963,96.921 43.376,93.664 40.901 C 90.870 38.779,88.526 38.165,83.230 38.169 C 79.885 38.172,79.529 38.231,77.640 39.109 C 76.377 39.695,76.169 39.593,76.159 38.380 C 76.154 37.850,76.136 32.783,76.117 27.119 C 76.080 15.914,76.134 16.508,75.163 16.503 C 74.931 16.501,73.656 17.037,72.329 17.693 C 69.426 19.129,70.060 19.129,67.140 17.694 C 64.582 16.438,64.287 16.357,63.750 16.762 M155.798 17.107 C 157.456 17.551,156.515 21.459,154.639 21.920 C 154.087 22.056,153.429 21.487,153.581 21.007 C 153.635 20.837,153.742 20.144,153.817 19.467 C 154.046 17.425,154.586 16.782,155.798 17.107 M217.441 17.451 C 217.744 17.832,217.664 20.035,217.321 20.735 C 216.570 22.268,214.499 22.308,214.738 20.785 C 214.784 20.491,214.908 19.694,215.014 19.014 C 215.306 17.137,216.551 16.334,217.441 17.451 M302.168 17.456 C 303.018 18.537,301.922 20.667,300.514 20.667 C 299.794 20.667,299.623 18.382,300.268 17.375 C 300.633 16.804,301.691 16.849,302.168 17.456 M207.106 17.758 C 207.610 18.262,207.600 18.741,207.028 21.500 C 206.828 22.462,206.581 23.662,206.480 24.167 C 205.890 27.105,205.320 27.866,204.120 27.320 C 203.233 26.915,203.203 25.136,204.026 21.667 C 204.211 20.887,204.426 19.950,204.504 19.583 C 204.922 17.614,206.121 16.773,207.106 17.758 M246.078 17.528 C 246.336 17.645,246.558 17.925,246.638 18.235 C 246.775 18.765,246.760 18.893,246.171 22.250 C 245.978 23.350,245.754 24.627,245.674 25.089 C 245.458 26.340,245.028 27.124,244.447 27.327 C 242.884 27.872,242.473 26.540,243.080 22.897 C 243.896 17.998,244.548 16.831,246.078 17.528 M264.140 17.600 C 264.767 18.039,264.827 18.471,264.485 20.092 C 264.312 20.912,264.058 22.183,263.921 22.917 C 263.243 26.530,263.062 27.031,262.322 27.338 C 261.087 27.849,260.325 26.815,260.646 25.064 C 260.749 24.504,260.833 23.777,260.833 23.450 C 260.833 23.123,260.916 22.644,261.016 22.386 C 261.117 22.128,261.261 21.542,261.337 21.083 C 261.843 18.019,262.886 16.722,264.140 17.600 M145.963 22.462 L 146.010 24.502 145.582 24.698 C 144.397 25.238,143.998 24.348,144.596 22.500 C 145.563 19.514,145.896 19.504,145.963 22.462 M311.066 20.764 C 311.342 21.484,311.171 24.486,310.844 24.661 C 309.456 25.404,309.108 24.611,309.858 22.417 C 309.952 22.142,310.088 21.682,310.159 21.395 C 310.385 20.487,310.838 20.172,311.066 20.764 M136.076 23.159 C 136.658 23.802,136.381 25.905,135.623 26.600 C 134.021 28.068,133.119 26.503,134.023 23.821 C 134.381 22.757,135.412 22.424,136.076 23.159 M300.796 23.345 C 302.466 23.927,301.575 27.236,299.756 27.208 C 298.375 27.187,298.360 27.129,298.933 24.053 C 299.084 23.241,299.760 22.984,300.796 23.345 M116.750 38.487 C 116.017 38.646,115.117 38.929,114.750 39.116 C 114.383 39.304,113.910 39.511,113.699 39.576 C 110.987 40.415,107.675 44.916,107.335 48.224 C 107.110 50.418,107.106 93.528,107.331 94.333 C 107.421 94.654,107.909 95.704,108.417 96.667 C 109.807 99.303,109.806 99.299,109.256 100.357 C 108.543 101.728,107.804 103.064,107.651 103.259 C 107.077 103.990,107.149 106.755,107.792 108.740 C 108.564 111.121,111.490 114.400,113.667 115.326 C 116.404 116.489,116.454 116.495,123.604 116.497 L 130.125 116.500 131.104 116.073 C 131.643 115.839,132.816 115.279,133.711 114.829 C 134.985 114.188,135.419 114.042,135.711 114.155 C 135.916 114.234,137.123 114.794,138.393 115.399 C 142.161 117.195,141.866 117.857,141.841 107.668 C 141.831 103.259,141.777 99.424,141.721 99.146 C 141.530 98.190,140.445 98.176,138.962 99.109 C 138.620 99.324,138.230 99.500,138.096 99.500 C 137.963 99.500,137.807 99.575,137.750 99.667 C 137.650 99.829,134.111 101.620,131.417 102.872 C 129.702 103.669,128.965 103.824,126.865 103.829 C 121.501 103.842,120.130 102.685,120.027 98.058 C 119.946 94.415,118.871 94.834,128.298 94.832 C 137.928 94.829,137.568 94.890,139.821 92.879 C 141.764 91.143,141.848 90.620,141.836 80.290 L 141.826 71.998 141.022 70.290 C 139.943 68.001,139.557 67.145,139.430 66.766 C 139.360 66.556,139.735 65.596,140.537 63.933 L 141.750 61.417 141.802 55.883 C 141.882 47.272,141.525 45.539,139.043 42.490 C 138.553 41.889,137.912 41.259,137.618 41.091 C 137.324 40.923,136.933 40.651,136.750 40.487 C 136.195 39.990,133.819 38.875,132.667 38.571 C 131.006 38.134,118.686 38.069,116.750 38.487 M167.167 38.351 C 166.846 38.445,166.321 38.593,166.000 38.679 C 164.777 39.007,163.606 40.127,162.462 42.064 C 161.888 43.037,161.568 43.052,159.859 42.189 C 153.973 39.217,151.921 38.297,151.506 38.443 L 151.083 38.591 151.041 71.896 L 150.999 105.200 153.817 107.998 C 156.916 111.075,157.327 111.573,157.020 111.880 C 156.723 112.177,155.461 112.872,153.333 113.912 C 150.989 115.057,150.561 115.538,151.262 116.238 C 151.669 116.645,163.016 116.633,163.355 116.225 C 163.536 116.006,163.593 114.788,163.631 110.297 L 163.679 104.646 162.423 102.147 C 160.898 99.114,160.898 99.466,162.420 96.420 L 163.667 93.923 163.672 74.503 C 163.678 52.555,163.584 54.109,165.005 52.549 C 166.186 51.253,166.376 51.169,168.131 51.168 C 170.502 51.166,171.438 51.742,172.381 53.784 L 172.750 54.583 172.792 68.909 L 172.833 83.235 173.477 84.492 C 173.832 85.184,174.394 86.262,174.728 86.889 C 175.489 88.319,175.499 88.186,174.457 90.213 C 172.656 93.713,172.844 92.063,172.829 104.521 C 172.821 110.534,172.865 115.652,172.926 115.895 C 173.159 116.821,173.755 116.681,177.284 114.875 C 179.063 113.965,179.017 113.960,181.893 115.333 C 186.075 117.330,185.583 120.234,185.583 93.524 L 185.583 71.250 184.942 70.167 C 182.708 66.396,182.709 66.572,184.886 62.667 L 185.583 61.417 185.583 54.667 C 185.583 48.005,185.578 47.900,185.185 46.677 C 183.976 42.918,181.090 40.114,177.000 38.724 C 175.596 38.248,168.440 37.975,167.167 38.351 M204.500 38.422 C 200.193 39.284,196.692 42.282,195.356 46.250 C 194.656 48.329,194.482 50.375,194.534 55.917 L 194.583 61.083 195.875 63.672 C 197.447 66.823,197.450 66.402,195.833 69.626 L 194.500 72.285 194.501 88.351 C 194.501 105.272,194.533 106.098,195.275 108.417 C 196.472 112.161,199.875 115.351,203.562 116.185 C 206.684 116.891,214.352 116.548,215.237 115.663 C 215.471 115.429,216.261 115.462,216.470 115.714 C 216.778 116.085,216.594 121.935,216.248 122.795 C 215.428 124.830,213.391 125.742,209.660 125.747 L 207.071 125.750 203.577 124.029 C 199.461 122.001,198.441 121.487,197.037 120.730 C 194.492 119.359,194.500 119.333,194.500 129.331 C 194.500 139.170,194.543 139.316,197.000 137.820 C 197.137 137.736,198.082 137.253,199.099 136.745 C 201.252 135.670,200.776 135.615,204.219 137.344 L 206.522 138.500 212.656 138.500 C 217.684 138.500,218.919 138.455,219.500 138.250 C 219.890 138.112,220.351 138.000,220.524 138.000 C 220.941 138.000,222.812 137.096,224.167 136.239 C 226.745 134.609,228.338 132.181,229.080 128.748 L 229.500 126.807 229.500 115.845 L 229.500 104.882 228.150 102.185 C 226.585 99.057,226.594 99.461,228.032 96.598 C 229.636 93.405,229.496 96.323,229.497 66.167 C 229.499 39.792,229.494 39.409,229.168 38.875 C 228.749 38.187,228.248 38.179,227.000 38.840 C 226.496 39.107,225.371 39.671,224.500 40.092 C 223.629 40.514,222.004 41.303,220.888 41.846 C 218.444 43.035,218.441 43.036,217.938 42.041 C 217.168 40.523,214.980 38.775,213.376 38.398 C 212.116 38.101,206.020 38.118,204.500 38.422 M248.333 38.404 C 245.342 38.971,240.865 41.692,240.838 42.960 C 240.835 43.075,240.679 43.300,240.491 43.460 C 240.052 43.833,239.231 45.445,238.774 46.832 L 238.417 47.917 238.417 71.167 L 238.417 94.417 239.466 96.416 C 240.044 97.516,240.588 98.488,240.675 98.575 C 241.026 98.926,240.778 99.728,239.637 101.936 L 238.441 104.250 238.468 105.699 C 238.483 106.497,238.608 107.472,238.745 107.866 C 238.883 108.261,238.996 108.699,238.998 108.841 C 239.007 109.839,242.053 113.510,243.917 114.770 C 246.174 116.295,247.490 116.500,255.055 116.501 L 261.417 116.502 262.417 116.043 C 262.967 115.790,264.112 115.233,264.961 114.804 C 266.776 113.889,266.569 113.866,269.417 115.300 C 273.322 117.267,273.000 117.990,273.000 107.253 L 273.000 98.673 272.542 98.553 C 271.852 98.372,271.583 98.455,269.760 99.413 C 266.473 101.140,264.558 102.097,262.750 102.918 L 260.917 103.750 257.833 103.736 C 253.694 103.716,252.348 103.106,251.495 100.860 C 251.102 99.825,251.004 95.396,251.367 95.033 C 251.517 94.883,253.552 94.833,259.492 94.831 C 267.694 94.829,268.100 94.801,269.667 94.113 C 270.500 93.748,271.713 92.426,272.360 91.178 L 272.917 90.105 272.962 80.948 L 273.008 71.790 272.004 69.649 C 271.452 68.471,271.000 67.398,271.000 67.263 C 271.000 67.129,270.925 66.973,270.833 66.917 C 270.624 66.787,270.618 66.253,270.821 65.873 C 270.906 65.714,271.125 65.246,271.306 64.833 C 271.488 64.421,271.943 63.432,272.318 62.635 L 273.000 61.187 273.000 54.826 C 273.000 47.853,272.970 47.581,271.961 45.271 C 270.527 41.986,267.562 39.489,264.000 38.563 C 262.585 38.196,250.102 38.069,248.333 38.404 M297.667 38.560 C 295.860 39.171,294.929 39.916,293.986 41.503 C 292.968 43.217,293.447 43.335,285.788 39.487 C 283.114 38.143,282.754 38.083,282.404 38.920 C 282.006 39.874,282.127 104.692,282.528 105.424 C 282.681 105.703,283.276 106.378,283.850 106.924 C 287.961 110.834,288.697 111.786,287.875 112.134 C 287.715 112.202,287.284 112.444,286.918 112.671 C 286.553 112.898,285.432 113.496,284.428 114.000 C 282.415 115.010,282.178 115.242,282.427 115.950 L 282.591 116.417 288.448 116.460 C 293.609 116.499,294.337 116.473,294.569 116.240 C 294.800 116.009,294.833 115.245,294.833 110.158 L 294.833 104.339 293.667 102.012 C 292.218 99.121,292.218 99.200,293.668 96.343 L 294.835 94.042 294.876 74.396 L 294.917 54.750 295.485 53.629 C 297.358 49.933,302.380 50.283,303.764 54.207 C 303.960 54.763,304.000 57.243,304.000 68.954 L 304.000 83.033 304.984 84.975 C 305.526 86.043,306.088 87.142,306.233 87.417 C 306.668 88.237,306.558 88.667,305.250 91.256 L 304.000 93.730 304.000 104.745 C 304.000 118.380,303.623 117.322,307.773 115.333 C 310.654 113.953,310.367 113.980,312.248 114.905 C 313.930 115.731,315.805 116.501,316.134 116.500 C 316.831 116.499,316.833 116.437,316.832 93.797 C 316.831 69.885,316.934 71.847,315.544 69.083 C 314.191 66.391,314.200 65.984,315.663 63.667 C 315.750 63.529,316.030 62.967,316.285 62.417 L 316.750 61.417 316.750 54.833 C 316.750 46.095,316.515 45.141,313.618 42.130 C 310.614 39.007,308.090 38.154,301.929 38.180 C 299.114 38.192,298.626 38.235,297.667 38.560 M337.373 49.339 C 336.476 49.700,337.254 52.196,339.109 54.912 C 339.541 55.544,339.256 56.318,337.314 59.795 C 336.938 60.469,334.408 61.986,333.627 62.005 C 333.511 62.008,333.271 62.121,333.093 62.255 C 332.737 62.525,331.906 62.585,331.761 62.352 C 331.711 62.270,331.464 62.152,331.212 62.089 C 330.960 62.025,330.006 61.605,329.091 61.154 C 327.283 60.262,326.459 60.121,326.173 60.656 C 325.799 61.353,325.951 72.295,326.338 72.627 C 326.639 72.884,327.240 72.926,331.630 73.000 L 336.583 73.083 336.667 78.140 L 336.750 83.197 337.143 83.515 C 337.513 83.814,337.874 83.833,343.185 83.833 C 349.383 83.833,349.492 83.815,349.505 82.792 C 349.508 82.585,349.508 80.354,349.505 77.833 C 349.499 72.296,349.361 72.695,351.669 71.548 C 354.238 70.271,354.173 70.272,356.562 71.464 C 360.842 73.598,360.500 74.026,360.500 66.531 C 360.500 59.315,361.244 60.167,354.937 60.167 C 350.584 60.167,350.015 60.136,349.812 59.891 C 349.631 59.672,349.579 58.596,349.562 54.692 C 349.541 49.811,349.538 49.767,349.169 49.468 C 348.754 49.132,338.175 49.017,337.373 49.339 M126.673 51.568 C 127.576 52.165,128.101 52.778,128.582 53.793 L 129.000 54.676 129.000 67.991 C 129.000 75.314,128.954 81.425,128.899 81.570 C 128.810 81.801,128.243 81.833,124.244 81.833 L 119.691 81.833 119.114 80.875 C 117.182 77.666,117.185 77.713,118.750 74.734 L 120.000 72.354 120.001 63.636 C 120.002 54.100,120.000 54.118,120.992 52.863 C 122.428 51.046,124.999 50.460,126.673 51.568 M214.016 51.512 C 214.754 51.884,216.289 53.535,216.459 54.139 C 216.772 55.256,216.600 100.040,216.279 100.872 C 215.996 101.605,214.698 103.000,214.298 103.000 C 214.213 103.000,214.037 103.106,213.907 103.236 C 213.426 103.716,208.299 103.955,207.776 103.521 C 207.531 103.318,207.500 102.758,207.500 98.548 L 207.500 93.803 206.239 91.066 C 204.863 88.077,204.880 88.212,205.677 86.667 C 205.937 86.162,206.453 85.092,206.825 84.288 L 207.500 82.827 207.500 68.585 C 207.500 54.734,207.509 54.326,207.829 53.713 C 209.077 51.321,211.749 50.371,214.016 51.512 M257.205 51.275 C 258.036 51.595,258.821 52.282,259.558 53.333 L 260.083 54.083 260.130 67.767 C 260.173 80.192,260.153 81.471,259.909 81.673 C 259.698 81.848,258.716 81.892,255.362 81.875 L 251.083 81.854 250.659 81.349 C 250.179 80.778,248.667 77.832,248.667 77.468 C 248.667 77.337,249.210 76.184,249.875 74.907 L 251.083 72.583 251.167 63.500 L 251.250 54.417 251.734 53.461 C 252.733 51.490,255.205 50.503,257.205 51.275 " stroke="none" fill="#0b0704" fill-rule="evenodd"/>
  </g>
</svg>
